<?xml version="1.0" encoding="UTF-8"?>
<svg xmlns="http://www.w3.org/2000/svg" viewBox="0 0 256 256" width="256" height="256">
  <!-- Background panel -->
  <rect x="0" y="0" width="256" height="256" rx="44" fill="#0B1220"/>
  <!-- Header bar -->
  <rect x="0" y="16" width="256" height="40" fill="#1F2937"/>
  <!-- Header: clock (left) -->
  <rect x="16" y="24" width="48" height="24" rx="6" fill="#334155"/>
  <!-- Header: title (center) -->
  <rect x="78" y="22" width="100" height="28" rx="6" fill="#E5E7EB"/>
  <!-- Header: temp (right) -->
  <rect x="196" y="22" width="44" height="28" rx="6" fill="#9CA3AF"/>

  <!-- Main area tile -->
  <rect x="20" y="72" width="216" height="112" rx="16" fill="#111827" stroke="#1E293B" stroke-width="2"/>

  <!-- Three relay buttons -->
  <rect x="28" y="132" width="60" height="40" rx="10" fill="#374151"/>
  <rect x="98" y="132" width="60" height="40" rx="10" fill="#374151"/>
  <rect x="168" y="132" width="60" height="40" rx="10" fill="#374151"/>

  <!-- Footer navigation: prev / home / next -->
  <rect x="0" y="196" width="256" height="44" fill="#0B1220"/>
  <rect x="0" y="196" width="160" height="44" fill="#2C3E50"/>
  <rect x="160" y="196" width="96" height="44" fill="#2C3E50"/>
  <rect x="160" y="196" width="160" height="44" fill="#00000000"/>
  <rect x="160" y="196" width="96" height="44" fill="#2C3E50"/>
  <rect x="160" y="196" width="96" height="44" fill="#2C3E50"/>
  <rect x="160" y="196" width="96" height="44" fill="#2C3E50"/>
  <rect x="160" y="196" width="96" height="44" fill="#2C3E50"/>
  <!-- Split evenly into thirds (visual) -->
  <rect x="0" y="196" width="160" height="44" fill="#2C3E50"/>
  <rect x="160" y="196" width="96" height="44" fill="#2C3E50"/>
  <rect x="160" y="196" width="96" height="44" fill="#2C3E50"/>
  <rect x="160" y="196" width="96" height="44" fill="#2C3E50"/>
  <!-- Simplify: three pill buttons -->
  <rect x="16" y="204" width="64" height="28" rx="14" fill="#1F5A7A"/>
  <rect x="96" y="204" width="64" height="28" rx="14" fill="#1F5A7A"/>
  <rect x="176" y="204" width="64" height="28" rx="14" fill="#1F5A7A"/>
</svg>

