<?xml version="1.0" encoding="UTF-8"?>
<svg xmlns="http://www.w3.org/2000/svg" viewBox="0 0 640 200" width="640" height="200">
  <!-- Icon block on the left (same motif as icon.svg) -->
  <g transform="translate(0,0)">
    <rect x="0" y="0" width="200" height="200" rx="36" fill="#0B1220"/>
    <rect x="0" y="12" width="200" height="36" fill="#1F2937"/>
    <rect x="12" y="20" width="36" height="20" rx="6" fill="#334155"/>
    <rect x="74" y="18" width="76" height="24" rx="6" fill="#E5E7EB"/>
    <rect x="160" y="18" width="28" height="24" rx="6" fill="#9CA3AF"/>
    <rect x="16" y="60" width="168" height="88" rx="14" fill="#111827" stroke="#1E293B" stroke-width="2"/>
    <rect x="24" y="110" width="48" height="32" rx="10" fill="#374151"/>
    <rect x="76" y="110" width="48" height="32" rx="10" fill="#374151"/>
    <rect x="128" y="110" width="48" height="32" rx="10" fill="#374151"/>
    <rect x="0" y="160" width="200" height="36" fill="#0B1220"/>
    <rect x="12" y="166" width="52" height="24" rx="12" fill="#2C3E50"/>
    <rect x="74" y="166" width="52" height="24" rx="12" fill="#2C3E50"/>
    <rect x="136" y="166" width="52" height="24" rx="12" fill="#2C3E50"/>
  </g>

  <!-- Wordmark on the right -->
  <g transform="translate(224, 36)" fill="#E5E7EB">
    <text x="0" y="64" font-size="64" font-family="Inter, ui-sans-serif, system-ui, -apple-system, Segoe UI, Roboto, Ubuntu, Cantarell, 'Helvetica Neue', Arial, 'Noto Sans', 'Apple Color Emoji', 'Segoe UI Emoji', 'Segoe UI Symbol'">Dash480</text>
    <text x="0" y="112" font-size="20" fill="#9CA3AF" font-family="Inter, ui-sans-serif, system-ui, -apple-system, Segoe UI, Roboto, Ubuntu, Cantarell, 'Helvetica Neue', Arial, 'Noto Sans'">openHASP 480×480</text>
  </g>
</svg>

